Coordinates
version=1
nRows=18
nColumns=38
inDegrees=no

Units are S.I. units (second, meters, Newtons, ...)
If the header above contains a line with 'inDegrees', this indicates whether rotational values are in degrees (yes) or radians (no).

endheader
time	pelvis_tilt	pelvis_list	pelvis_rotation	pelvis_tx	pelvis_ty	pelvis_tz	hip_flexion_r	hip_adduction_r	hip_rotation_r	knee_angle_r	ankle_angle_r	subtalar_angle_r	mtp_angle_r	hip_flexion_l	hip_adduction_l	hip_rotation_l	knee_angle_l	ankle_angle_l	subtalar_angle_l	mtp_angle_l	lumbar_extension	lumbar_bending	lumbar_rotation	arm_flex_r	arm_add_r	arm_rot_r	elbow_flex_r	pro_sup_r	wrist_flex_r	wrist_dev_r	arm_flex_l	arm_add_l	arm_rot_l	elbow_flex_l	pro_sup_l	wrist_flex_l	wrist_dev_l
0.733333	-0.0169907	0.066044	-0.0443806	1.03264	0.963919	-0.333197	0.66831	-0.0788308	-0.0517059	-1.39233	0.108412	0.0220883	5.84335e-05	0.139578	0.231483	0.186476	-0.691618	0.412433	-0.00697599	0.000132011	-0.272166	-0.0682437	-0.177767	-0.603831	-0.0723194	-0.266336	0.989412	1.23157	0.0224468	-0.0319225	-0.377197	-0.272127	-0.0802502	2.03784	1.66757	0.0137847	-0.0298775
0.741667	-0.0288115	0.0535914	-0.0451244	1.03267	0.96895	-0.333785	0.681054	-0.0676909	-0.0642778	-1.33145	0.107615	0.0220883	5.84335e-05	0.117727	0.215833	0.188299	-0.659612	0.382133	-0.00697599	0.000132011	-0.259713	-0.0502672	-0.179642	-0.619804	-0.0773938	-0.267208	1.00136	1.2218	0.0224468	-0.0319225	-0.3705	-0.265891	-0.0703194	2.06767	1.65115	0.0137847	-0.0298775
0.75	-0.0403664	0.0410215	-0.0467314	1.03293	0.974434	-0.334252	0.689723	-0.0546308	-0.0746367	-1.26444	0.103737	0.0220883	5.84335e-05	0.0961169	0.199369	0.187125	-0.626726	0.345085	-0.00697599	0.000132011	-0.247224	-0.0323942	-0.180337	-0.635749	-0.0830336	-0.267394	1.01527	1.21612	0.0224468	-0.0319225	-0.366207	-0.260017	-0.0588337	2.09765	1.63082	0.0137847	-0.0298775
0.758333	-0.0511924	0.0286096	-0.0489403	1.03342	0.980278	-0.334614	0.693853	-0.0398101	-0.0819491	-1.19169	0.0962957	0.0220883	5.84335e-05	0.0746717	0.18255	0.183182	-0.593735	0.301632	-0.00697599	0.000132011	-0.235302	-0.0149222	-0.180091	-0.651297	-0.0888222	-0.267354	1.03012	1.21475	0.0224468	-0.0319225	-0.363894	-0.25476	-0.045988	2.12706	1.60856	0.0137847	-0.0298775
0.766667	-0.0608274	0.016621	-0.0515058	1.03413	0.986379	-0.334899	0.693052	-0.0235597	-0.0855705	-1.11372	0.085006	0.0220883	5.84335e-05	0.0532619	0.165867	0.176887	-0.561403	0.252482	-0.00697599	0.000132011	-0.224513	0.00185805	-0.17909	-0.666181	-0.0943319	-0.267602	1.04517	1.21772	0.0224468	-0.0319225	-0.36317	-0.250296	-0.0321275	2.15535	1.58655	0.0137847	-0.0298775
0.775	-0.0688564	0.00534956	-0.0542252	1.03505	0.992627	-0.335138	0.687082	-0.00642209	-0.0851481	-1.0312	0.069884	0.0220883	5.84335e-05	0.031767	0.149865	0.168782	-0.530479	0.198695	-0.00697599	0.000132011	-0.215324	0.0176179	-0.177466	-0.680229	-0.0991588	-0.268623	1.05987	1.22481	0.0224468	-0.0319225	-0.363697	-0.246738	-0.0176501	2.18212	1.56673	0.0137847	-0.0298775
0.783333	-0.0749722	-0.00485986	-0.0569517	1.03615	0.998905	-0.335356	0.675968	0.0108561	-0.0806942	-0.945136	0.0513231	0.0220883	5.84335e-05	0.010157	0.13514	0.159467	-0.501702	0.141636	-0.00697599	0.000132011	-0.208036	0.0319627	-0.175311	-0.693342	-0.102963	-0.270783	1.07393	1.23552	0.0224468	-0.0319225	-0.365187	-0.244153	-0.00292432	2.20709	1.5505	0.0137847	-0.0298775
0.791667	-0.0790469	-0.0136105	-0.059597	1.03744	1.00509	-0.335571	0.660109	0.0273784	-0.0726188	-0.856864	0.0301148	0.0220883	5.84335e-05	-0.0114192	0.122319	0.149535	-0.475814	0.0828812	-0.00697599	0.000132011	-0.202727	0.0444316	-0.172701	-0.705474	-0.105511	-0.274253	1.08718	1.24903	0.0224468	-0.0319225	-0.367412	-0.242562	0.0117467	2.2301	1.53873	0.0137847	-0.0298775
0.8	-0.0811861	-0.0204797	-0.0621248	1.03887	1.01104	-0.335786	0.640338	0.0421986	-0.0617222	-0.768123	0.00739224	0.0220883	5.84335e-05	-0.0325726	0.112013	0.139506	-0.453559	0.0241021	-0.00697599	0.000132011	-0.199217	0.0545388	-0.169707	-0.716611	-0.106703	-0.278973	1.09959	1.26423	0.0224468	-0.0319225	-0.370206	-0.241945	0.0261249	2.25105	1.53169	0.0137847	-0.0298775
0.808333	-0.0817254	-0.0250707	-0.0645424	1.04039	1.01662	-0.335998	0.617907	0.0544573	-0.0491503	-0.681013	-0.0155117	0.0220883	5.84335e-05	-0.0526716	0.104734	0.129788	-0.435678	-0.0330652	-0.00697599	0.000132011	-0.1971	0.061856	-0.166397	-0.726747	-0.106584	-0.284667	1.11121	1.27976	0.0224468	-0.0319225	-0.373463	-0.242235	0.040014	2.2699	1.52921	0.0137847	-0.0298775
0.816667	-0.0811483	-0.0271055	-0.0668946	1.04197	1.0217	-0.336213	0.594358	0.0635301	-0.0363052	-0.597879	-0.0372776	0.0220883	5.84335e-05	-0.0709157	0.100795	0.120651	-0.422889	-0.0871411	-0.00697599	0.000132011	-0.195825	0.0661109	-0.162828	-0.735871	-0.105324	-0.29091	1.12214	1.29432	0.0224468	-0.0319225	-0.377132	-0.243316	0.053232	2.28664	1.53067	0.0137847	-0.0298775
0.825	-0.0799792	-0.0265236	-0.0692591	1.04354	1.02617	-0.336436	0.571302	0.0691507	-0.024708	-0.521122	-0.0568392	0.0220883	5.84335e-05	-0.0864696	0.100227	0.112223	-0.415863	-0.136882	-0.00697599	0.000132011	-0.194841	0.0672785	-0.159016	-0.743957	-0.103188	-0.297221	1.13248	1.3068	0.0224468	-0.0319225	-0.381206	-0.245026	0.0655928	2.30123	1.53516	0.0137847	-0.0298775
0.833333	-0.0786711	-0.023519	-0.0717404	1.04506	1.02994	-0.336666	0.55017	0.0714759	-0.0158132	-0.452963	-0.0735878	0.0220883	5.84335e-05	-0.0986072	0.102741	0.1045	-0.415204	-0.18131	-0.00697599	0.000132011	-0.193733	0.0656333	-0.15492	-0.750947	-0.100494	-0.303133	1.14233	1.31644	0.0224468	-0.0319225	-0.385704	-0.247158	0.0769005	2.31363	1.54163	0.0137847	-0.0298775
0.841667	-0.0774839	-0.0185413	-0.0744556	1.04648	1.03298	-0.336885	0.531998	0.0710641	-0.0107827	-0.395204	-0.087484	0.0220883	5.84335e-05	-0.106823	0.107767	0.0974049	-0.421413	-0.219713	-0.00697599	0.000132011	-0.192309	0.0617324	-0.150441	-0.756759	-0.0975825	-0.308256	1.15176	1.32277	0.0224468	-0.0319225	-0.390666	-0.249477	0.0869614	2.32381	1.54904	0.0137847	-0.0298775
0.85	-0.0764674	-0.0122768	-0.0775193	1.04775	1.03526	-0.337077	0.517296	0.0687561	-0.0102638	-0.349048	-0.0990262	0.0220883	5.84335e-05	-0.110894	0.114564	0.0908481	-0.434866	-0.251603	-0.00697599	0.000132011	-0.190632	0.0563163	-0.145449	-0.76129	-0.0947782	-0.312313	1.16081	1.32565	0.0224468	-0.0319225	-0.396135	-0.251736	0.0956051	2.33169	1.55649	0.0137847	-0.0298775
0.858333	-0.0754919	-0.00550872	-0.0810151	1.04884	1.0368	-0.337233	0.506028	0.0655276	-0.0142204	-0.31502	-0.109076	0.0220883	5.84335e-05	-0.110897	0.122347	0.0848075	-0.45577	-0.276663	-0.00697599	0.000132011	-0.188999	0.0502038	-0.139833	-0.764426	-0.092373	-0.315151	1.1695	1.32515	0.0224468	-0.0319225	-0.402157	-0.253699	0.10271	2.33724	1.56333	0.0137847	-0.0298775
0.866667	-0.0742997	0.00101698	-0.0849634	1.04974	1.03759	-0.337341	0.497683	0.0623345	-0.0218516	-0.292981	-0.118579	0.0220883	5.84335e-05	-0.107177	0.130412	0.079389	-0.48412	-0.29471	-0.00697599	0.000132011	-0.187852	0.0441773	-0.133543	-0.766068	-0.0906056	-0.316736	1.17782	1.32155	0.0224468	-0.0319225	-0.40878	-0.255163	0.10822	2.34043	1.56912	0.0137847	-0.0298775
0.875	-0.0725309	0.00669162	-0.0893009	1.05047	1.03769	-0.337402	0.491423	0.0599875	-0.0316299	-0.282234	-0.128249	0.0220883	5.84335e-05	-0.100295	0.138236	0.074849	-0.519636	-0.30567	-0.00697599	0.000132011	-0.187673	0.0388838	-0.126627	-0.766139	-0.0896477	-0.317136	1.18573	1.31532	0.0224468	-0.0319225	-0.416058	-0.255977	0.112149	2.34126	1.57368	0.0137847	-0.0298775
